<svg width="14" height="17" viewBox="0 0 14 17" fill="none" xmlns="http://www.w3.org/2000/svg">
<path d="M5.552 6.99303C5.096 6.99303 4.736 7.40978 4.736 7.91821C4.736 8.42665 5.104 8.84339 5.552 8.84339C6.008 8.84339 6.368 8.42665 6.368 7.91821C6.376 7.40978 6.008 6.99303 5.552 6.99303ZM8.472 6.99303C8.016 6.99303 7.656 7.40978 7.656 7.91821C7.656 8.42665 8.024 8.84339 8.472 8.84339C8.928 8.84339 9.288 8.42665 9.288 7.91821C9.288 7.40978 8.928 6.99303 8.472 6.99303Z" fill="black"/>
<path d="M12.36 0H1.64C0.736 0 0 0.766816 0 1.717V12.9859C0 13.9361 0.736 14.7029 1.64 14.7029H10.712L10.288 13.1609L11.312 14.1528L12.28 15.0863L14 16.6699V1.717C14 0.766816 13.264 0 12.36 0ZM9.272 10.8855C9.272 10.8855 8.984 10.5271 8.744 10.2103C9.792 9.90193 10.192 9.21847 10.192 9.21847C9.864 9.44351 9.552 9.60188 9.272 9.71023C8.872 9.88526 8.488 10.002 8.112 10.0686C7.344 10.2187 6.64 10.177 6.04 10.0603C5.584 9.96861 5.192 9.83525 4.864 9.70189C4.68 9.62688 4.48 9.5352 4.28 9.41851C4.256 9.40184 4.232 9.3935 4.208 9.37683C4.192 9.3685 4.184 9.36016 4.176 9.35183C4.032 9.26848 3.952 9.21013 3.952 9.21013C3.952 9.21013 4.336 9.87693 5.352 10.1937C5.112 10.5104 4.816 10.8855 4.816 10.8855C3.048 10.8271 2.376 9.61854 2.376 9.61854C2.376 6.93469 3.528 4.75926 3.528 4.75926C4.68 3.85909 5.776 3.88409 5.776 3.88409L5.856 3.98411C4.416 4.41753 3.752 5.07599 3.752 5.07599C3.752 5.07599 3.928 4.97597 4.224 4.83428C5.08 4.44253 5.76 4.33418 6.04 4.30917C6.088 4.30084 6.128 4.2925 6.176 4.2925C6.664 4.22583 7.216 4.20916 7.792 4.27584C8.552 4.36752 9.368 4.6009 10.2 5.07599C10.2 5.07599 9.568 4.45087 8.208 4.01745L8.32 3.88409C8.32 3.88409 9.416 3.85909 10.568 4.75926C10.568 4.75926 11.72 6.93469 11.72 9.61854C11.72 9.61854 11.04 10.8271 9.272 10.8855Z" fill="black"/>
</svg>
