<svg width="17" height="18" viewBox="0 0 17 18" fill="none" xmlns="http://www.w3.org/2000/svg">
<path d="M8.29999 1.56279C10.5 1.56279 10.8 1.56279 11.7 1.56279C12.5 1.56279 12.9 1.77117 13.2 1.87535C13.6 2.08373 13.9 2.18791 14.2 2.50047C14.5 2.81303 14.7 3.12559 14.8 3.54233C14.9 3.85489 15 4.27164 15.1 5.10513C15.1 6.04281 15.1 6.25118 15.1 8.64746C15.1 11.0437 15.1 11.2521 15.1 12.1898C15.1 13.0233 14.9 13.44 14.8 13.7526C14.6 14.1693 14.5 14.4819 14.2 14.7945C13.9 15.107 13.6 15.3154 13.2 15.4196C12.9 15.5238 12.5 15.6279 11.7 15.7321C10.8 15.7321 10.6 15.7321 8.29999 15.7321C5.99999 15.7321 5.79999 15.7321 4.89999 15.7321C4.09999 15.7321 3.7 15.5238 3.4 15.4196C3 15.2112 2.7 15.107 2.4 14.7945C2.1 14.4819 1.9 14.1693 1.8 13.7526C1.7 13.44 1.6 13.0233 1.5 12.1898C1.5 11.2521 1.5 11.0437 1.5 8.64746C1.5 6.25118 1.5 6.04281 1.5 5.10513C1.5 4.27164 1.7 3.85489 1.8 3.54233C2 3.12559 2.1 2.81303 2.4 2.50047C2.7 2.18791 3 1.97954 3.4 1.87535C3.7 1.77117 4.09999 1.66698 4.89999 1.56279C5.79999 1.56279 6.09999 1.56279 8.29999 1.56279ZM8.29999 0C5.99999 0 5.79999 0 4.89999 0C3.99999 0 3.4 0.208373 2.9 0.416746C2.4 0.625118 1.9 0.937677 1.4 1.45861C0.899999 1.97954 0.7 2.39629 0.4 3.0214C0.2 3.54233 0.0999999 4.16745 0 5.10513C0 6.04281 0 6.35536 0 8.64746C0 11.0437 0 11.2521 0 12.1898C0 13.1275 0.2 13.7526 0.4 14.2735C0.6 14.7945 0.899999 15.3154 1.4 15.8363C1.9 16.3572 2.3 16.5656 2.9 16.8782C3.4 17.0866 3.99999 17.1907 4.89999 17.2949C5.79999 17.2949 6.09999 17.2949 8.29999 17.2949C10.5 17.2949 10.8 17.2949 11.7 17.2949C12.6 17.2949 13.2 17.0866 13.7 16.8782C14.2 16.6698 14.7 16.3572 15.2 15.8363C15.7 15.3154 15.9 14.8986 16.2 14.2735C16.4 13.7526 16.5 13.1275 16.6 12.1898C16.6 11.2521 16.6 10.9396 16.6 8.64746C16.6 6.35536 16.6 6.04281 16.6 5.10513C16.6 4.16745 16.4 3.54233 16.2 3.0214C16 2.50047 15.7 1.97954 15.2 1.45861C14.7 0.937677 14.3 0.729305 13.7 0.416746C13.2 0.208373 12.6 0.104186 11.7 0C10.8 0 10.6 0 8.29999 0Z" fill="black"/>
<path d="M8.29999 4.16745C5.89999 4.16745 3.99999 6.14699 3.99999 8.64746C3.99999 11.1479 5.89999 13.1275 8.29999 13.1275C10.7 13.1275 12.6 11.1479 12.6 8.64746C12.6 6.14699 10.7 4.16745 8.29999 4.16745ZM8.29999 11.5647C6.79999 11.5647 5.49999 10.3144 5.49999 8.64746C5.49999 7.08467 6.69999 5.73025 8.29999 5.73025C9.79999 5.73025 11.1 6.98048 11.1 8.64746C11.1 10.2103 9.79999 11.5647 8.29999 11.5647Z" fill="black"/>
<path d="M12.7 5.10513C13.2523 5.10513 13.7 4.63867 13.7 4.06327C13.7 3.48786 13.2523 3.0214 12.7 3.0214C12.1477 3.0214 11.7 3.48786 11.7 4.06327C11.7 4.63867 12.1477 5.10513 12.7 5.10513Z" fill="black"/>
</svg>
