<svg width="16" height="17" viewBox="0 0 16 17" fill="none" xmlns="http://www.w3.org/2000/svg">
<path d="M6.07941 0.243326L6.25897 1.0011C5.55128 1.18333 4.87394 1.47551 4.24973 1.86781L3.86561 1.19765C4.55269 0.764143 5.2992 0.442336 6.07941 0.243326ZM9.92059 0.243326L9.74103 1.0011C10.4487 1.18333 11.1261 1.47551 11.7503 1.86781L12.1389 1.19765C11.45 0.764524 10.7021 0.442757 9.92059 0.243326ZM1.14951 4.02511C0.733814 4.742 0.424971 5.52048 0.233538 6.33396L0.960863 6.52103C1.13577 5.78371 1.4162 5.07802 1.79274 4.42767L1.14951 4.02511ZM0.749484 8.33496C0.749429 7.95605 0.776781 7.57766 0.831308 7.20303L0.0903461 7.08463C-0.0301154 7.91267 -0.0301154 8.75489 0.0903461 9.58292L0.831308 9.46689C0.776867 9.09225 0.749515 8.71387 0.749484 8.33496ZM12.1344 15.4699L11.7503 14.8021C11.127 15.1948 10.4504 15.487 9.74331 15.6688L9.92286 16.4266C10.7021 16.2257 11.4477 15.9031 12.1344 15.4699ZM15.2505 8.33496C15.2505 8.71387 15.2231 9.09225 15.1687 9.46689L15.9097 9.58292C16.0301 8.75489 16.0301 7.91267 15.9097 7.08463L15.1687 7.20303C15.2232 7.57766 15.2506 7.95605 15.2505 8.33496ZM15.7665 10.3336L15.0391 10.1465C14.8646 10.8847 14.5842 11.5913 14.2073 12.2422L14.8505 12.6448C15.2666 11.9273 15.5754 11.148 15.7665 10.3336ZM9.08644 15.8038C8.36626 15.9175 7.63374 15.9175 6.91356 15.8038L6.80219 16.5758C7.59618 16.7013 8.40382 16.7013 9.19781 16.5758L9.08644 15.8038ZM13.8368 12.8153C13.4048 13.4257 12.8868 13.9646 12.3003 14.4138L12.7458 15.0437C13.3918 14.5482 13.9632 13.9552 14.4414 13.2842L13.8368 12.8153ZM12.3003 2.2538C12.8868 2.70385 13.4048 3.24353 13.8368 3.85461L14.4414 3.38573C13.9649 2.71411 13.395 2.1203 12.7503 1.6239L12.3003 2.2538ZM2.16322 3.85461C2.59519 3.24353 3.11317 2.70385 3.69969 2.2538L3.24966 1.6239C2.60503 2.1203 2.03508 2.71411 1.55863 3.38573L2.16322 3.85461ZM14.8505 4.02511L14.2073 4.42767C14.5841 5.07699 14.8646 5.78196 15.0391 6.51866L15.7665 6.33159C15.575 5.51887 15.2662 4.74117 14.8505 4.02511ZM6.91356 0.866124C7.63374 0.752443 8.36626 0.752443 9.08644 0.866124L9.19781 0.0941388C8.40382 -0.0313796 7.59618 -0.0313796 6.80219 0.0941388L6.91356 0.866124ZM2.54734 15.252L0.999502 15.6262L1.36089 14.0135L0.631294 13.8359L0.269904 15.4486C0.247293 15.5486 0.243823 15.6522 0.259693 15.7536C0.275563 15.855 0.310461 15.9521 0.362392 16.0394C0.414323 16.1267 0.482268 16.2025 0.562339 16.2625C0.64241 16.3224 0.733037 16.3653 0.829035 16.3887C0.941304 16.4148 1.0577 16.4148 1.16997 16.3887L2.71781 16.0169L2.54734 15.252ZM0.78585 13.1397L1.51772 13.315L1.76774 12.1973C1.40263 11.5592 1.13069 10.868 0.960863 10.1465L0.233538 10.3336C0.397137 11.0242 0.644605 11.6903 0.969954 12.3157L0.78585 13.1397ZM4.2861 14.8305L3.2133 15.091L3.38376 15.8535L4.17245 15.6617C4.77225 16.0017 5.41167 16.2596 6.07486 16.429L6.25442 15.6712C5.56408 15.4919 4.90306 15.207 4.29292 14.8258L4.2861 14.8305ZM8 1.56233C4.40884 1.5647 1.50181 4.59817 1.50181 8.33733C1.50379 9.6109 1.84955 10.8582 2.49961 11.9368L1.87456 14.7169L4.54066 14.0656C7.57951 16.0572 11.5934 15.1076 13.5049 11.9439C15.4164 8.78016 14.5073 4.59817 11.4707 2.60427C10.4311 1.92318 9.22802 1.56199 8 1.56233Z" fill="black"/>
</svg>
