<svg width="16" height="14" viewBox="0 0 16 14" fill="none" xmlns="http://www.w3.org/2000/svg">
<path d="M1.09992 5.9473C5.39487 3.99771 8.25885 2.71241 9.69185 2.09142C13.7834 0.318375 14.6335 0.0103773 15.1877 9.85982e-05C15.3095 -0.0020298 15.582 0.0294393 15.7586 0.178669C15.9076 0.304676 15.9486 0.474893 15.9683 0.594362C15.9879 0.71383 16.0123 0.985982 15.9929 1.19863C15.7712 3.6258 14.8118 9.51591 14.3237 12.2344C14.1172 13.3847 13.7105 13.7704 13.3168 13.8081C12.4613 13.8901 11.8116 13.219 10.9829 12.6531C9.68624 11.7675 8.95369 11.2162 7.69503 10.352C6.24042 9.35332 7.18338 8.80442 8.01236 7.90736C8.22931 7.6726 11.999 4.10024 12.0719 3.77617C12.0811 3.73564 12.0895 3.58456 12.0034 3.50478C11.9172 3.42501 11.7901 3.45229 11.6983 3.47399C11.5683 3.50474 9.4968 4.93124 5.48389 7.75349C4.89591 8.17415 4.36333 8.3791 3.88616 8.36836C3.36012 8.35652 2.34822 8.05848 1.59598 7.80372C0.673328 7.49124 -0.0599784 7.32603 0.00387615 6.79535C0.0371355 6.51894 0.402482 6.23626 1.09992 5.9473Z" fill="black"/>
</svg>
