<svg width="16" height="14" viewBox="0 0 16 14" fill="none"
  xmlns="http://www.w3.org/2000/svg">
  <path d="M16 1.56281C15.4 1.87537 14.8 1.97955 14.1 2.08374C14.8 1.66699 15.3 1.04187 15.5 0.208374C14.9 0.625122 14.2 0.833496 13.4 1.04187C12.8 0.416748 11.9 0 11 0C8.9 0 7.3 2.08374 7.8 4.16748C5.1 4.06329 2.7 2.70886 1 0.625122C0.1 2.18793 0.6 4.16748 2 5.20935C1.5 5.20935 1 5.00098 0.5 4.7926C0.5 6.35541 1.6 7.81403 3.1 8.23077C2.6 8.33496 2.1 8.43915 1.6 8.33496C2 9.68939 3.2 10.7313 4.7 10.7313C3.5 11.6689 1.7 12.1899 0 11.9815C1.5 12.9192 3.2 13.5443 5 13.5443C11.1 13.5443 14.5 8.23077 14.3 3.33398C15 2.91724 15.6 2.29211 16 1.56281Z" fill="black"/>
</svg>
