<svg width="30" height="30" viewBox="0 0 30 30" fill="none" xmlns="http://www.w3.org/2000/svg">
<rect width="30" height="30" rx="15" fill="#454C55"/>
<path fill-rule="evenodd" clip-rule="evenodd" d="M15.0001 5C12.791 5 11.0001 6.79086 11.0001 9C11.0001 11.2091 12.791 13 15.0001 13C17.2092 13 19.0001 11.2091 19.0001 9C19.0001 6.79086 17.2092 5 15.0001 5ZM21.025 17.5142C22.8315 18.3731 23.4833 20.66 22.0683 22.0739C20.2589 23.8819 17.7601 25 15.0001 25C12.2192 25 9.70338 23.8648 7.89081 22.0326C6.49173 20.6184 7.1389 18.3455 8.9353 17.4908C13.149 15.4861 16.8142 15.5123 21.025 17.5142Z" fill="white"/>
</svg>
